<svg xmlns="http://www.w3.org/2000/svg" version="1.1" xmlns:xlink="http://www.w3.org/1999/xlink" xmlns:svgjs="http://svgjs.dev/svgjs" width="1500" height="257" viewBox="0 0 1500 257"><g transform="matrix(1,0,0,1,-0.9090909090911055,0.036275553782161296)"><svg viewBox="0 0 396 68" data-background-color="#131313" preserveAspectRatio="xMidYMid meet" height="257" width="1500" xmlns="http://www.w3.org/2000/svg" xmlns:xlink="http://www.w3.org/1999/xlink"><g id="tight-bounds" transform="matrix(1,0,0,1,0.24000000000006594,-0.009598201000727613)"><svg viewBox="0 0 395.51999999999987 68.01919640200146" height="68.01919640200146" width="395.51999999999987"><g><svg viewBox="0 0 581.6102098183497 100.0218929284072" height="68.01919640200146" width="395.51999999999987"><g transform="matrix(1,0,0,1,186.09020981834973,13.82357565074225)"><svg viewBox="0 0 395.52 72.3747416269227" height="72.3747416269227" width="395.52"><g id="textblocktransform"><svg viewBox="0 0 395.52 72.3747416269227" height="72.3747416269227" width="395.52" id="textblock"><g><svg viewBox="0 0 395.52 72.3747416269227" height="72.3747416269227" width="395.52"><g transform="matrix(1,0,0,1,0,0)"><svg width="395.52" viewBox="3.66 -38.18 272.826301367223 49.92" height="72.3747416269227" data-palette-color="#f4dcfe"><path d="M23.54-14.01L23.73-14.01Q24.07-15.33 24.48-16.61 24.88-17.9 25.46-19.48L25.46-19.48Q25.98-20.9 26.71-22.74 27.44-24.58 28.26-26.49 29.08-28.39 29.86-30.03 30.64-31.67 31.27-32.64L31.27-32.64Q32.06-33.84 32.97-34.42 33.89-35.01 35.67-35.01L35.67-35.01 38.87-35.01Q40.14-35.01 41-34.63 41.87-34.25 42.24-32.84L42.24-32.84Q42.5-31.79 42.75-29.76 42.99-27.73 43.16-24.15 43.33-20.56 43.43-14.93 43.53-9.3 43.53-1.03L43.53-1.03Q43.53-0.59 43.24-0.29 42.94 0 42.53 0L42.53 0 36.96 0Q36.55 0 36.25-0.29 35.96-0.59 35.96-1.05L35.96-1.05Q35.96-7.5 35.96-11.99 35.96-16.48 35.94-19.43 35.91-22.39 35.88-24.13 35.84-25.88 35.77-26.83L35.77-26.83 35.62-26.83Q34.33-23.85 32.86-20.2 31.4-16.55 30-12.68 28.61-8.81 27.51-5.13L27.51-5.13Q27.2-4.03 26.72-3.6 26.25-3.17 24.56-3.17L24.56-3.17 21.75-3.17Q20.31-3.17 19.84-3.54 19.36-3.91 19.02-5.13L19.02-5.13Q18.21-7.91 17.24-11.01 16.26-14.11 15.22-17.1 14.18-20.09 13.22-22.62 12.26-25.15 11.5-26.83L11.5-26.83 11.35-26.83Q11.16-23.95 11.01-19.82 10.86-15.7 10.78-10.86 10.69-6.03 10.67-1L10.67-1Q10.67-0.56 10.38-0.28 10.08 0 9.67 0L9.67 0 4.66 0Q4.25 0 3.96-0.29 3.66-0.59 3.66-1.05L3.66-1.05Q3.69-14.06 4.19-21.83 4.69-29.59 5.27-32.23L5.27-32.23Q5.66-33.96 6.65-34.48 7.64-35.01 8.91-35.01L8.91-35.01 12.87-35.01Q14.21-35.01 14.83-34.53 15.45-34.06 16.36-32.69L16.36-32.69Q16.89-31.88 17.64-30.27 18.38-28.66 19.19-26.7 20-24.73 20.72-22.81 21.44-20.9 21.9-19.48L21.9-19.48Q22.39-18.04 22.8-16.69 23.22-15.33 23.54-14.01L23.54-14.01ZM62.47 0.61L62.47 0.61Q56.32 0.61 52.73-2.66 49.14-5.93 49.14-12.4L49.14-12.4Q49.14-19.04 52.87-22.33 56.59-25.61 62.81-25.61L62.81-25.61Q68.82-25.61 72.43-22.38 76.05-19.14 76.05-12.84L76.05-12.84Q76.05-6.27 72.43-2.83 68.82 0.61 62.47 0.61ZM62.72-5.3L62.72-5.3Q65.4-5.3 66.77-6.97 68.14-8.64 68.14-12.7L68.14-12.7Q68.14-16.55 66.76-18.13 65.38-19.7 62.67-19.7L62.67-19.7Q60.06-19.7 58.55-18.01 57.05-16.31 57.05-12.5L57.05-12.5Q57.05-8.52 58.48-6.91 59.91-5.3 62.72-5.3ZM105.46-15.55L105.46-15.55 105.46-1.29Q105.46-0.56 105.16-0.28 104.85 0 104.12 0L104.12 0 99.09 0Q98.36 0 98.05-0.28 97.75-0.56 97.75-1.29L97.75-1.29 97.75-14.28Q97.75-16.94 96.63-18.16 95.5-19.38 93.57-19.38L93.57-19.38Q91.65-19.38 90.61-18.55 89.57-17.72 89.01-16.46L89.01-16.46 89.01-1.29Q89.01-0.56 88.7-0.28 88.4 0 87.67 0L87.67 0 82.64 0Q81.9 0 81.6-0.28 81.29-0.56 81.29-1.29L81.29-1.29 81.29-21.75Q81.29-22.34 81.54-22.66L81.54-22.66Q82.05-23.34 82.77-24.05 83.49-24.76 84.54-25.56L84.54-25.56Q84.86-25.81 85.15-25.81L85.15-25.81Q85.42-25.81 85.76-25.56L85.76-25.56Q86.79-24.76 87.52-24.02 88.25-23.29 88.81-22.51L88.81-22.51 88.94-22.51Q89.35-23.05 90.18-23.77 91.01-24.49 92.51-25.05 94.01-25.61 96.36-25.61L96.36-25.61Q98.65-25.61 100.73-24.68 102.8-23.75 104.13-21.56 105.46-19.36 105.46-15.55ZM124.31 0.61L124.31 0.61Q120.18 0.61 117.13-0.72 114.08-2.05 112.39-4.86 110.71-7.67 110.71-12.11L110.71-12.11Q110.71-18.77 114.13-22.19 117.55-25.61 123.21-25.61L123.21-25.61Q126.9-25.61 129.45-24.29 132-22.97 133.33-20.65 134.66-18.33 134.66-15.36L134.66-15.36Q134.66-12.45 133.17-11.3 131.68-10.16 128.83-10.16L128.83-10.16 118.35-10.16Q118.55-7.64 120.2-6.32 121.84-5 124.68-5L124.68-5Q126.92-5 128.28-5.68 129.63-6.35 130.17-6.74L130.17-6.74Q130.63-7.08 131.22-7.06L131.22-7.06Q131.68-7.06 132.55-6.87 133.42-6.69 134.27-6.2L134.27-6.2Q134.88-5.88 134.88-5.32L134.88-5.32Q134.88-5 134.76-4.42L134.76-4.42Q134.68-4.08 134.51-3.43 134.34-2.78 134.07-2.22L134.07-2.22Q133.93-1.95 133.61-1.71L133.61-1.71Q133.12-1.37 132.04-0.81 130.95-0.24 129.07 0.18 127.19 0.61 124.31 0.61ZM118.3-15.16L118.3-15.16 126.26-15.16Q127.51-15.16 127.51-16.31L127.51-16.31Q127.51-18.04 126.42-19.23 125.33-20.41 123.16-20.41L123.16-20.41Q120.79-20.41 119.68-18.9 118.57-17.38 118.3-15.16ZM140.81 11.74L140.81 11.74Q139.91 11.74 139.44 11.56 138.98 11.38 138.66 11.11L138.66 11.11Q138.03 10.5 137.29 9.4L137.29 9.4Q137.12 9.13 136.93 8.78 136.73 8.42 136.73 8.18L136.73 8.18Q136.73 7.91 136.86 7.69 136.98 7.47 137.15 7.28L137.15 7.28Q137.54 6.76 138.1 6.21 138.66 5.66 139.05 5.35L139.05 5.35Q139.32 5.13 139.49 5.07 139.66 5 139.78 5L139.78 5Q139.91 5 140.15 5.05 140.4 5.1 140.88 5.1L140.88 5.1Q142.57 5.1 144.4 4 146.23 2.91 148.01-0.12L148.01-0.12Q146.16-1.83 144.36-4.41 142.57-6.98 141.13-10 139.69-13.01 138.82-16.02 137.95-19.02 137.95-21.56L137.95-21.56Q137.95-22.09 138.22-22.41L138.22-22.41Q139.35-23.8 141.42-25.32L141.42-25.32Q141.79-25.56 142.08-25.56L142.08-25.56Q142.4-25.56 142.74-25.32L142.74-25.32Q143.86-24.51 144.63-23.8 145.4-23.1 145.94-22.41L145.94-22.41Q146.21-22.09 146.21-21.51L146.21-21.51 146.21-21.61Q146.21-19.68 146.67-17.53 147.13-15.38 147.94-13.34 148.74-11.3 149.75-9.66 150.75-8.01 151.82-7.03L151.82-7.03 151.94-7.03Q152.43-7.96 153.03-9.7 153.63-11.45 154.16-13.59 154.7-15.72 155.04-17.83 155.39-19.95 155.39-21.58L155.39-21.58 155.39-21.51Q155.39-22.09 155.63-22.41L155.63-22.41Q156.19-23.1 156.95-23.8 157.7-24.51 158.78-25.32L158.78-25.32Q159.12-25.56 159.41-25.56L159.41-25.56Q159.76-25.56 160.05-25.32L160.05-25.32Q161.15-24.51 161.9-23.8 162.66-23.1 163.2-22.41L163.2-22.41Q163.44-22.09 163.44-21.53L163.44-21.53Q163.42-19.31 162.59-15.73 161.76-12.16 160.17-7.98 158.58-3.81 156.31 0.2L156.31 0.2Q152.92 6.23 148.99 8.98 145.06 11.74 140.81 11.74ZM163.44-21.58L163.44-21.58 163.44-21.51 163.44-21.53Q163.44-21.56 163.44-21.58ZM137.95-21.51L137.95-21.58 137.95-21.56 137.95-21.51ZM188.15-14.01L188.34-14.01Q188.68-15.33 189.09-16.61 189.49-17.9 190.08-19.48L190.08-19.48Q190.59-20.9 191.32-22.74 192.05-24.58 192.87-26.49 193.69-28.39 194.47-30.03 195.25-31.67 195.89-32.64L195.89-32.64Q196.67-33.84 197.58-34.42 198.5-35.01 200.28-35.01L200.28-35.01 203.48-35.01Q204.75-35.01 205.61-34.63 206.48-34.25 206.85-32.84L206.85-32.84Q207.12-31.79 207.36-29.76 207.6-27.73 207.78-24.15 207.95-20.56 208.04-14.93 208.14-9.3 208.14-1.03L208.14-1.03Q208.14-0.59 207.85-0.29 207.56 0 207.14 0L207.14 0 201.57 0Q201.16 0 200.87-0.29 200.57-0.59 200.57-1.05L200.57-1.05Q200.57-7.5 200.57-11.99 200.57-16.48 200.55-19.43 200.52-22.39 200.49-24.13 200.45-25.88 200.38-26.83L200.38-26.83 200.23-26.83Q198.94-23.85 197.47-20.2 196.01-16.55 194.62-12.68 193.22-8.81 192.13-5.13L192.13-5.13Q191.81-4.03 191.33-3.6 190.86-3.17 189.17-3.17L189.17-3.17 186.36-3.17Q184.92-3.17 184.45-3.54 183.97-3.91 183.63-5.13L183.63-5.13Q182.82-7.91 181.85-11.01 180.87-14.11 179.83-17.1 178.8-20.09 177.83-22.62 176.87-25.15 176.11-26.83L176.11-26.83 175.96-26.83Q175.77-23.95 175.62-19.82 175.48-15.7 175.39-10.86 175.3-6.03 175.28-1L175.28-1Q175.28-0.56 174.99-0.28 174.69 0 174.28 0L174.28 0 169.27 0Q168.86 0 168.57-0.29 168.27-0.59 168.27-1.05L168.27-1.05Q168.3-14.06 168.8-21.83 169.3-29.59 169.88-32.23L169.88-32.23Q170.28-33.96 171.26-34.48 172.25-35.01 173.52-35.01L173.52-35.01 177.48-35.01Q178.82-35.01 179.44-34.53 180.07-34.06 180.97-32.69L180.97-32.69Q181.51-31.88 182.25-30.27 183-28.66 183.8-26.7 184.61-24.73 185.33-22.81 186.05-20.9 186.51-19.48L186.51-19.48Q187-18.04 187.41-16.69 187.83-15.33 188.15-14.01L188.15-14.01ZM213.97-33.2L213.97-33.2Q213.97-33.52 214.17-33.76 214.36-34.01 214.68-34.4L214.68-34.4Q215.37-35.18 216.27-36.05 217.17-36.91 218.1-37.72L218.1-37.72Q218.69-38.18 218.98-38.18L218.98-38.18Q219.27-38.18 219.88-37.72L219.88-37.72Q221.86-36.01 223.25-34.4L223.25-34.4Q223.57-34.03 223.78-33.78 223.98-33.52 223.98-33.2L223.98-33.2Q223.98-32.89 223.78-32.64 223.57-32.4 223.23-31.98L223.23-31.98Q222.57-31.23 221.69-30.36 220.81-29.49 219.88-28.71L219.88-28.71Q219.54-28.42 219.35-28.33 219.15-28.25 218.98-28.25L218.98-28.25Q218.81-28.25 218.63-28.33 218.44-28.42 218.05-28.71L218.05-28.71Q217.07-29.49 216.22-30.36 215.37-31.23 214.68-32.03L214.68-32.03Q214.36-32.42 214.17-32.65 213.97-32.89 213.97-33.2ZM222.81-23.71L222.81-1.29Q222.81-0.56 222.51-0.28 222.2 0 221.47 0L221.47 0 216.44 0Q215.71 0 215.4-0.28 215.1-0.56 215.1-1.29L215.1-1.29 215.1-23.71Q215.1-24.44 215.4-24.72 215.71-25 216.44-25L216.44-25 221.47-25Q222.2-25 222.51-24.72 222.81-24.44 222.81-23.71L222.81-23.71ZM253.62-15.55L253.62-15.55 253.62-1.29Q253.62-0.56 253.32-0.28 253.01 0 252.28 0L252.28 0 247.25 0Q246.52 0 246.21-0.28 245.91-0.56 245.91-1.29L245.91-1.29 245.91-14.28Q245.91-16.94 244.78-18.16 243.66-19.38 241.73-19.38L241.73-19.38Q239.8-19.38 238.76-18.55 237.73-17.72 237.17-16.46L237.17-16.46 237.17-1.29Q237.17-0.56 236.86-0.28 236.55 0 235.82 0L235.82 0 230.79 0Q230.06 0 229.76-0.28 229.45-0.56 229.45-1.29L229.45-1.29 229.45-21.75Q229.45-22.34 229.69-22.66L229.69-22.66Q230.21-23.34 230.93-24.05 231.65-24.76 232.7-25.56L232.7-25.56Q233.01-25.81 233.31-25.81L233.31-25.81Q233.58-25.81 233.92-25.56L233.92-25.56Q234.94-24.76 235.68-24.02 236.41-23.29 236.97-22.51L236.97-22.51 237.09-22.51Q237.51-23.05 238.34-23.77 239.17-24.49 240.67-25.05 242.17-25.61 244.51-25.61L244.51-25.61Q246.81-25.61 248.88-24.68 250.96-23.75 252.29-21.56 253.62-19.36 253.62-15.55ZM270.1 0.61L270.1 0.61Q261.94 0.61 261.94-7.86L261.94-7.86 261.94-19.31 259.18-19.31Q258.45-19.31 258.17-19.62 257.89-19.92 257.89-20.65L257.89-20.65 257.89-23.66Q257.89-24.39 258.17-24.69 258.45-25 259.18-25L259.18-25 261.94-25 261.94-28.93Q261.94-29.52 262.19-29.83L262.19-29.83Q263.21-31.18 265.19-32.74L265.19-32.74Q265.53-32.98 265.8-32.98L265.8-32.98Q266.09-32.98 266.39-32.74L266.39-32.74Q267.44-31.93 268.16-31.23 268.88-30.52 269.39-29.83L269.39-29.83Q269.63-29.52 269.63-28.93L269.63-28.93 269.63-25 273.95-25Q274.69-25 274.97-24.69 275.25-24.39 275.25-23.66L275.25-23.66 275.25-20.65Q275.25-19.92 274.97-19.62 274.69-19.31 273.95-19.31L273.95-19.31 269.63-19.31 269.63-9.2Q269.63-5.3 272.47-5.3L272.47-5.3Q272.9-5.3 273.27-5.38 273.64-5.47 273.91-5.57L273.91-5.57Q274.42-5.76 274.63-5.71 274.83-5.66 275-5.18L275-5.18 276.42-1.39Q276.64-0.78 276.13-0.51L276.13-0.51Q275.76-0.34 274.36 0.13 272.95 0.61 270.1 0.61Z" opacity="1" transform="matrix(1,0,0,1,0,0)" fill="#f4dcfe" class="wordmark-text-0" data-fill-palette-color="primary" id="text-0"></path></svg></g></svg></g></svg></g></svg></g><g><svg viewBox="0 0 169.00427031403234 100.0218929284072" height="100.0218929284072" width="169.00427031403234"><g><svg xmlns="http://www.w3.org/2000/svg" xmlns:xlink="http://www.w3.org/1999/xlink" version="1.1" x="8" y="0" viewBox="28.50666734072633 0.3250000000000002 1223.5750307688716 799.875" enable-background="new 0 0 1280 800" xml:space="preserve" width="153.00427031403234" height="100.0218929284072" class="icon-icon-0" data-fill-palette-color="accent" id="icon-0"><path d="M1129.8 604.9c-7.8-7.8-24.1-13.7-35.8-13.7-300.5 5.9-601 5.9-902.1 0-11.7 0-28 5.9-35.8 13.7-48.8 47.5-72.8 70.9-117.7 116.4-7.2 7.2-3.9 13.7 7.8 14.3 398 18.9 795.4 18.9 1193.5-0.7 11.7-0.7 15-7.2 7.8-14.3C1202.6 675.8 1179.2 652.4 1129.8 604.9zM514.5 727.8c-11.7 0-14.3-6.5-5.9-14.3 5.2-4.6 7.8-7.2 13-12.4 8.5-7.8 24.7-14.3 36.4-14.3 68.9 0.7 103.4 0.7 172.4 0 11.7 0 28 6.5 36.4 14.3 5.2 4.6 7.8 7.2 13 12.4 8.5 7.8 5.9 14.3-5.9 14.3C688.1 728.5 601 728.5 514.5 727.8z" fill="#eeff5f" data-fill-palette-color="accent"></path><path d="M1249.4 774c-0.7 4.6-5.2 9.1-10.4 9.1-400 22.8-798 22.8-1198 0-4.6 0-9.1-4.6-10.4-9.1-0.7-5.9-1.3-8.5-2-14.3-0.7-4.6 2.6-8.5 7.8-8.5C439 772 841 772 1244.2 751.2c4.6 0 8.5 3.3 7.8 8.5C1250.7 765.5 1250.1 768.1 1249.4 774z" fill="#eeff5f" data-fill-palette-color="accent"></path><g fill="#eeff5f" data-fill-palette-color="accent"><path d="M642 195.1c-48.1 0-87.2 39-87.2 87.2 0 45.5 37.7 55.3 49.4 117.7 0 1.3 0.7 3.9 2.6 3.9 11.7 2 23.4 2.6 35.8 2.6s24.1-0.7 35.8-2.6c2 0 2.6-2 2.6-3.3 13-58.5 49.4-72.8 49.4-118.4C729.8 234.8 690.7 195.1 642 195.1z" fill="#eeff5f" data-fill-palette-color="accent"></path><g fill="#eeff5f" data-fill-palette-color="accent"><path d="M651.1 419.5c-4.6 0-12.4 0-17.6 0l-20.2-1.3c-4.6-0.7-7.8 2.6-7.2 7.8l3.9 26c0.7 4.6 5.2 9.8 9.8 11.1 0 0 4.6 1.3 22.1 1.3 17.6 0 22.1-1.3 22.1-1.3 4.6-1.3 9.1-6.5 9.8-11.1l3.9-26c0.7-4.6-2.6-8.5-7.2-7.8L651.1 419.5z" fill="#eeff5f" data-fill-palette-color="accent"></path></g></g><path d="M543.1 228.3c-1.3 0-2.6-0.7-3.9-1.3l-52.7-30.6c-3.9-2-5.2-7.2-2.6-11.1 2-3.9 7.2-5.2 11.1-2.6l52.7 30.6c3.9 2 5.2 7.2 2.6 11.1C548.3 227 545.7 228.3 543.1 228.3z" fill="#eeff5f" data-fill-palette-color="accent"></path><path d="M580.8 182.1c-2.6 0-5.2-1.3-7.2-3.9l-30.6-52.7c-2-3.9-0.7-8.5 2.6-11.1 3.9-2 8.5-0.7 11.1 2.6l30.6 52.7c2 3.9 0.7 8.5-2.6 11.1C583.4 181.5 582.1 182.1 580.8 182.1z" fill="#eeff5f" data-fill-palette-color="accent"></path><path d="M640 160c-4.6 0-7.8-3.3-7.8-7.8V96.9c0-4.6 3.3-7.8 7.8-7.8 4.6 0 7.8 3.3 7.8 7.8v55.3C647.8 156.1 644.6 160 640 160z" fill="#eeff5f" data-fill-palette-color="accent"></path><path d="M703.7 182.1c-1.3 0-2.6-0.7-3.9-1.3-3.9-2-5.2-7.2-2.6-11.1l30.6-52.7c2-3.9 7.2-5.2 11.1-2.6 3.9 2 5.2 7.2 2.6 11.1l-30.6 52.7C709.6 180.8 707 182.1 703.7 182.1z" fill="#eeff5f" data-fill-palette-color="accent"></path><path d="M741.5 228.3c-2.6 0-5.2-1.3-7.2-3.9-2-3.9-0.7-8.5 2.6-11.1l52.7-30.6c3.9-2 8.5-0.7 11.1 2.6 2 3.9 0.7 8.5-2.6 11.1L745.4 227C744.1 228.3 742.8 228.3 741.5 228.3z" fill="#eeff5f" data-fill-palette-color="accent"></path><path d="M1062.1 48.1c14.3 153.5 19.5 307 15 461.1-288.8 3.3-578.2 3.3-867 0-3.9-153.5 1.3-307.6 15.6-461.1C504.7 39 783.1 39 1062.1 48.1M1077.1 9.1C787-2.6 498.2-2.6 208.1 9.1c-11.1 0.7-19.5 7.2-20.8 18.9-16.3 169.1-22.1 336.9-17.6 506.7 0.7 11.7 8.5 23.4 20.2 24.1 301.8 4.6 603.6 4.6 905.4 0 11.7 0 22.1-12.4 22.1-24.1 4.6-169.8-2-336.9-18.2-506C1098.5 15.6 1088.8 9.1 1077.1 9.1L1077.1 9.1z" fill="#eeff5f" data-fill-palette-color="accent"></path></svg></g></svg></g></svg></g><defs></defs></svg><rect width="395.51999999999987" height="68.01919640200146" fill="none" stroke="none" visibility="hidden"></rect></g></svg></g></svg>